<?xml version="1.0" encoding="UTF-8" standalone="no"?>
<svg
   version="1.1"
   width="73.736549mm"
   height="82.819664mm"
   viewBox="0 0 73.73655 82.819664"
   id="svg1900"
   sodipodi:docname="MuSR-Scint1.svg"
   inkscape:version="1.1.1 (3bf5ae0d25, 2021-09-20)"
   xmlns:inkscape="http://www.inkscape.org/namespaces/inkscape"
   xmlns:sodipodi="http://sodipodi.sourceforge.net/DTD/sodipodi-0.dtd"
   xmlns="http://www.w3.org/2000/svg"
   xmlns:svg="http://www.w3.org/2000/svg">
  <sodipodi:namedview
     id="namedview1902"
     pagecolor="#ffffff"
     bordercolor="#666666"
     borderopacity="1.0"
     inkscape:pageshadow="2"
     inkscape:pageopacity="0.0"
     inkscape:pagecheckerboard="0"
     inkscape:document-units="mm"
     showgrid="false"
     inkscape:zoom="2.9621405"
     inkscape:cx="258.76558"
     inkscape:cy="177.40549"
     inkscape:window-width="1920"
     inkscape:window-height="1009"
     inkscape:window-x="-8"
     inkscape:window-y="-8"
     inkscape:window-maximized="1"
     inkscape:current-layer="layer4"
     fit-margin-top="10"
     fit-margin-left="10"
     fit-margin-right="10"
     fit-margin-bottom="10" />
  <!-- Working space 0 0 210 297 -->
  <defs
     id="defs1698">
    <radialGradient
       id="radialGradient3661"
       gradientUnits="userSpaceOnUse"
       cy="29.149"
       cx="282.64999"
       gradientTransform="matrix(0.14777,0.23089,-0.2468,0.15795,-26.318,-62.617)"
       r="19.570999">
      <stop
         stop-color="#71b2f8"
         offset="0"
         id="stop1688" />
      <stop
         stop-color="#002795"
         offset="1"
         id="stop1690" />
    </radialGradient>
    <radialGradient
       id="radialGradient3817"
       gradientUnits="userSpaceOnUse"
       cy="33.900002"
       cx="270.57999"
       gradientTransform="matrix(0.26631,0.065024,-0.17931,0.73438,-60.668,-36.938)"
       r="19.570999">
      <stop
         stop-color="#ff6d0f"
         offset="0"
         id="stop1693" />
      <stop
         stop-color="#ff1000"
         offset="1"
         id="stop1695" />
    </radialGradient>
  </defs>
  <!-- Set display:none to hide FreeCAD Logo -->
  <g
     id="Ortho_-1_1"
     transform="matrix(5,0,0,5,45.53035,43.729957)">
    <g
       fill="none"
       stroke="#000000"
       stroke-linecap="butt"
       stroke-linejoin="miter"
       stroke-width="0.07"
       transform="scale(1,-1)"
       id="g1707">
      <path
         id="1"
         d="M -0.517638,-1.93185 -0.446927,-1.9508" />
      <path
         id="2"
         d="M 0.517638,1.93185 0.588349,1.9129" />
    </g>
    <g
       fill="none"
       stroke="#000000"
       stroke-linecap="butt"
       stroke-linejoin="miter"
       stroke-width="0.07"
       transform="scale(1,-1)"
       id="g1780">
      <path
         id="path1709"
         d="M -7.07107,4.81717 -7.00036,4.79822" />
      <path
         id="path1711"
         d="M -7.00036,4.79822 0.0707107,6.69291" />
      <path
         id="3"
         d="M 0,6.71185 0.0707107,6.69291" />
      <path
         id="4"
         d="M -7.07107,4.81717 0,6.71185" />
      <path
         id="5"
         d="M -7.07107,4.81717 V 0" />
      <path
         id="6"
         d="m -7.07107,0 0.07071,-0.0189469" />
      <path
         id="7"
         d="M -7.00036,4.79822 V -0.0189469" />
      <path
         id="8"
         d="M 0.0707107,6.69291 V 4.83611" />
      <path
         id="9"
         d="M 0.0707107,2.10061 V 1.9434" />
      <path
         id="10"
         d="M -7.00036,-0.0189469 -3.53553,0.90945" />
      <path
         id="11"
         d="m -0.626601,1.6889 0.248686,0.06663" />
      <path
         id="12"
         d="M -7.07107,-0.0963433 V -4.81717" />
      <path
         id="13"
         d="m -7.07107,-4.81717 0.07071,-0.01894" />
      <path
         id="14"
         d="M -7.00036,-0.11529 V -4.83611" />
      <path
         id="15"
         d="M -7.07107,-0.0963433 -7.00036,-0.11529" />
      <path
         id="16"
         d="M -7.07107,-0.0963433 -3.53553,0.851" />
      <path
         id="17"
         d="m -0.706279,1.6091 0.198437,0.05317" />
      <path
         id="18"
         d="m -7.00036,-4.83611 3.46483,0.92839" />
      <path
         id="19"
         d="M 0.0707107,-1.94581 V -2.09842" />
      <path
         id="20"
         d="m -7.00036,-0.11529 3.46483,0.928396" />
      <path
         id="21"
         d="M -0.752638,1.55878 -0.574932,1.6064" />
      <path
         d="M 0.0707107,-1.94581 A 2,1.3625 -105 0 1 0.588349,1.9129"
         id="path1732" />
      <path
         d="M 0.588349,1.9129 A 2,1.3625 -105 0 1 -0.446927,-1.9508"
         id="path1734" />
      <path
         d="m -0.446927,-1.9508 a 2,1.3625 -105 0 1 0.5176377,0.00499"
         id="path1736" />
      <path
         d="m 0.517638,1.93185 a 2,1.3625 -105 0 1 -1.035276,-3.8637"
         id="path1738" />
      <path
         id="26"
         d="M -3.53553,3.86982 -3.46482,3.85087" />
      <path
         id="27"
         d="M -3.46482,3.85087 3.60624,5.74556" />
      <path
         id="28"
         d="M 3.53553,5.76451 3.60624,5.74556" />
      <path
         id="29"
         d="M -3.53553,3.86982 3.53553,5.76451" />
      <path
         id="30"
         d="M -3.53553,3.86982 V -0.947343" />
      <path
         id="31"
         d="M -3.53553,-0.947343 -3.46482,-0.96629" />
      <path
         id="32"
         d="M -3.46482,3.85087 V -0.96629" />
      <path
         id="33"
         d="M 3.60624,5.74556 V 0.928397" />
      <path
         id="34"
         d="M 1.62635,0.397884 3.60624,0.928397" />
      <path
         d="M 1.62635,0.397884 A 2.2,1.49875 -105 0 1 0.640113,2.10609"
         id="path1749" />
      <path
         d="M 0.640113,2.10609 A 2.2,1.49875 -105 0 1 -1.48492,-0.435778"
         id="path1751" />
      <path
         id="37"
         d="m -3.46482,-0.96629 1.9799,0.530512" />
      <path
         d="M 1.55563,0.416831 A 2.2,1.49875 -105 0 1 0.604587,2.11493"
         id="path1754" />
      <path
         id="39"
         d="M 1.55563,0.416831 1.62635,0.397884" />
      <path
         id="40"
         d="M -3.53553,-1.04369 V -5.76451" />
      <path
         id="41"
         d="m -3.53553,-5.76451 0.07071,-0.01895" />
      <path
         id="42"
         d="M -3.46482,-1.06263 V -5.78346" />
      <path
         id="43"
         d="m -3.53553,-1.04369 0.07071,-0.01894" />
      <path
         id="44"
         d="m -3.53553,-1.04369 1.9815,0.530946" />
      <path
         d="M -0.533877,-2.13388 A 2.2,1.49875 -105 0 1 0,-2.11955"
         id="path1762" />
      <path
         d="M 0,-2.11955 A 2.2,1.49875 -105 0 1 1.55403,0.320057"
         id="path1764" />
      <path
         id="47"
         d="M 1.55403,0.320057 3.53553,0.851" />
      <path
         id="48"
         d="m -3.46482,-5.78346 7.07106,1.89469" />
      <path
         id="49"
         d="M 3.60624,0.832053 V -3.88877" />
      <path
         id="50"
         d="m -3.46482,-1.06263 1.9815,0.53094" />
      <path
         d="m -1.48332,-0.53169 a 2.2,1.49875 -105 0 1 0.984629,-1.61229"
         id="path1770" />
      <path
         d="M -0.498691,-2.14398 A 2.2,1.49875 -105 0 1 0.0707107,-2.1385"
         id="path1772" />
      <path
         d="M 0.0707107,-2.1385 A 2.2,1.49875 -105 0 1 1.62474,0.30111"
         id="path1774" />
      <path
         id="54"
         d="m 1.62474,0.30111 1.9815,0.530943" />
      <path
         id="55"
         d="M -1.55403,-0.512744 -1.48332,-0.53169" />
      <path
         id="56"
         d="M 3.53553,0.851 3.60624,0.832053" />
      <path
         id="57"
         d="M 1.55403,0.320057 1.62474,0.30111" />
    </g>
  </g>
  <g
     inkscape:groupmode="layer"
     id="layer4"
     inkscape:label="Areas"
     style="display:inline"
     transform="translate(-3.13175,-57.424043)">
    <path
       style="fill:#999999;fill-opacity:1;stroke:#000000;stroke-width:0.264583px;stroke-linecap:butt;stroke-linejoin:miter;stroke-opacity:1"
       d="M 31.337998,105.98545 V 81.899648 L 66.6933,72.426199 v 24.085815 l -9.899451,2.652564 -0.210981,-2.661417 -1.441323,-3.406765 -2.707942,-2.271178 -2.838971,-0.371247 -3.188383,1.310293 -2.664264,2.991837 -1.594191,3.384928 -0.720662,2.729781 -0.189632,2.46208 -9.899502,2.65256 v 0"
       id="detectors:US.1"
       onclick="top.showMessage(evt)">
      <title
         id="title3676">detectors:US.1</title>
    </path>
    <path
       style="fill:#999999;fill-opacity:1;stroke:#000000;stroke-width:0.264583px;stroke-linecap:butt;stroke-linejoin:miter;stroke-opacity:1"
       d="M 31.337998,107.52548 V 130.0713 L 66.6933,120.59785 V 96.993733 l -9.9075,2.654715 -0.475911,3.810192 -1.790734,3.79985 -3.439523,3.69066 -3.26359,1.09774 -3.069498,-0.75924 -2.118309,-2.20567 -1.135589,-2.97 -0.247148,-2.29953 -9.9075,2.6547 z"
       id="detectors:US.2"
       onclick="top.showMessage(evt)">
      <title
         id="title3678">detectors:US.2</title>
    </path>
    <path
       id="detectors:M.1"
       style="fill:#999999;fill-opacity:1;stroke:#000000;stroke-width:0.457955;stroke-linecap:round;stroke-linejoin:round;stroke-miterlimit:4;stroke-dasharray:none;stroke-opacity:1"
       onclick="top.showMessage(evt)"
       d="m 50.213631,91.123722 a 6.8129768,9.8671218 16.610442 0 0 -7.875489,7.898798 6.8129768,9.8671218 16.610442 0 0 -0.510564,4.25691 L 56.01121,99.593415 a 6.8129768,9.8671218 16.610442 0 0 -4.401798,-8.311306 6.8129768,9.8671218 16.610442 0 0 -1.395781,-0.158387 z">
      <title
         id="title3684">detectors:M.1</title>
    </path>
    <path
       id="detectors:M.2"
       style="display:inline;fill:#999999;fill-opacity:1;stroke-width:1.75748033;stroke-linecap:round;stroke-linejoin:round;stroke:#000000;stroke-opacity:1;stroke-miterlimit:4;stroke-dasharray:none"
       onclick="top.showMessage(evt)"
       d="M 199.45898 162.12891 L 146.01562 176.44922 A 25.810394 38.360542 15.344214 0 0 162.61523 202.39844 A 25.810394 38.360542 15.344214 0 0 197.65625 172.23438 A 25.810394 38.360542 15.344214 0 0 199.45898 162.12891 z "
       transform="matrix(0.26458333,0,0,0.26458333,3.13175,57.424043)">
      <title
         id="title3684-5">detectors:M.2</title>
    </path>
    <path
       style="fill:#999999;fill-opacity:1;stroke:#000000;stroke-width:0.264583px;stroke-linecap:butt;stroke-linejoin:miter;stroke-opacity:1"
       d="M 30.984449,96.898999 13.6603,101.24873 13.30675,77.06815 48.6621,67.594749 49.015652,76.97345 31.337998,81.899648 30.984449,97.088469"
       id="detectors:DS.1"
       onclick="top.showMessage(evt)">
      <title
         id="title3680">detectors:DS.1</title>
    </path>
    <path
       style="fill:#999999;fill-opacity:1;stroke:#000000;stroke-width:0.264583px;stroke-linecap:butt;stroke-linejoin:miter;stroke-opacity:1"
       d="M 30.984449,97.088469 13.6603,101.73045 13.30675,125.23985 30.984449,120.6926 V 97.088469"
       id="detectors:DS.2"
       onclick="top.showMessage(evt)">
      <title
         id="title3682">detectors:DS.2</title>
    </path>
  </g>
</svg>
